<svg xmlns="http://www.w3.org/2000/svg" xmlns:dc="http://purl.org/dc/elements/1.1/" xmlns:svg="http://www.w3.org/2000/svg" xmlns:rdf="http://www.w3.org/1999/02/22-rdf-syntax-ns#" xmlns:cc="http://creativecommons.org/ns#" xmlns:xlink="http://www.w3.org/1999/xlink"><defs><style>.cls-1{fill:#010202;}</style><style>.cls-1{fill:#010202;}</style><style>.cls-1{fill:#010202;}.cls-2{fill:#fff;}</style></defs><symbol id="lock_icon" viewBox="0 0 22 33.34"><title>lock_icon</title><path class="cls-1" d="M32.59,14.73V9.92A8.51,8.51,0,0,0,24,1.33a8.62,8.62,0,0,0-8.59,8.59v4.81L13,14.91V32.78l11,1.89,11-1.89V14.91ZM26.23,28.48c0,0.69-1,1-2.23,1s-2.23-.52-2.23-1l1.55-5.16a2.75,2.75,0,1,1,1.38,0ZM30,14.39l-6-.52-6,.52V9.75a6,6,0,0,1,12,0v4.64Z" transform="translate(-13 -1.33)"/></symbol><symbol id="pack_icon" viewBox="63.042 164.413 485.34 462.31">
<polygon id="polygon3" fill="#1D1D1B" points="140.622,322.307 315.5,382.758 238.064,265.166 63.042,204.858 "/>
<polygon id="polygon5" fill="#1D1D1B" points="391.64,164.413 333.779,283.733 490.521,344.04 548.382,224.721 "/>
<polygon id="polygon7" fill="#1D1D1B" points="141.054,566.416 316.075,626.723 490.089,577.067 490.089,354.691 316.075,404.348 
	141.054,344.04 "/>
</symbol><symbol id="phone_icon" viewBox="0 0 21 31.58"><title>phone_icon</title><path class="cls-1" d="M33.64,2.82a3.57,3.57,0,0,0-2-.81H16.22a4,4,0,0,0-2,.65,2.26,2.26,0,0,0-.81,1.63v27a2.26,2.26,0,0,0,.81,1.63,2.59,2.59,0,0,0,2,.65H31.68a4,4,0,0,0,2-.65,2.26,2.26,0,0,0,.81-1.63v-27A1.94,1.94,0,0,0,33.64,2.82ZM21.43,4.13h4.72a0.74,0.74,0,0,1,.81.65,0.74,0.74,0,0,1-.81.65h-4.4a0.83,0.83,0,0,1-.81-0.65A0.57,0.57,0,0,1,21.43,4.13ZM26,30.82a1.72,1.72,0,0,1-1.14,1,3.33,3.33,0,0,1-1.79,0,1.72,1.72,0,0,1-1.14-1,1.5,1.5,0,0,1,.16-1.63,2.37,2.37,0,0,1,1.47-1,2.3,2.3,0,0,1,1.47.16,1.9,1.9,0,0,1,1,1A1.2,1.2,0,0,1,26,30.82Zm6.35-4.72H15.73V7.38h16.6V26.1Z" transform="translate(-13.45 -2.01)"/></symbol><symbol id="products_icon" viewBox="0 0 48 34.03"><title>products_icon</title><path class="cls-1" d="M23.46,29.28H17.19a1.82,1.82,0,0,1-2-1.61L14,1h12.9L25.61,27.67a2.15,2.15,0,0,1-2.15,1.61" transform="translate(0 -0.99)"/><path class="cls-1" d="M23.64,34.48c0,0.36-1.43.54-3.22,0.54s-3.22-.18-3.22-0.54,1.43-.54,3.22-0.54,3.22,0.36,3.22.54" transform="translate(0 -0.99)"/><rect class="cls-1" x="17.19" y="28.3" width="6.45" height="5.37"/><path class="cls-1" d="M9.85,33.94a13.37,13.37,0,0,1-9.85,0V18a30.3,30.3,0,0,0,9.85,0V33.94Z" transform="translate(0 -0.99)"/><path class="cls-1" d="M8.78,18a26.46,26.46,0,0,1-7.52,0V13a26.46,26.46,0,0,0,7.52,0v5Z" transform="translate(0 -0.99)"/><path class="cls-1" d="M7.88,11.91a15.42,15.42,0,0,1-5.73,0V5.46c2.33-1.25,5.73,0,5.73,2.87v3.58Z" transform="translate(0 -0.99)"/><rect class="cls-1" x="31.52" y="8.42" width="16.48" height="25.07"/><polyline class="cls-2" points="44.06 24.36 35.28 24.36 35.28 16.12 44.06 16.12"/><path d="M44.24,9.4a4.89,4.89,0,0,0,2.15-1.61,3.77,3.77,0,0,0,.9-2.33,1.89,1.89,0,0,0-.36-0.9A9,9,0,0,0,44.6,3.31a21.65,21.65,0,0,0-3.22-.9,12.66,12.66,0,0,0-4.48-.36,5.82,5.82,0,0,0-3,1.25,4.89,4.89,0,0,0-1.61,2.15,2.12,2.12,0,0,0,.18,1.79,3.16,3.16,0,0,0,1.43,1.61c0.36,0.18.54,0.54,0.9,0.72l9.49-.18h0" transform="translate(0 -0.99)"/></symbol></svg>